TITLE "Drums And Wires - DJM STUDIOS MIXES"
PERFORMER "XTC"
REM GENRE "Rock"
REM DATE "2014"
FILE "XTC - Drums And Wires - DJM STUDIOS MIXES.flac" WAVE
  TRACK 01 AUDIO
    TITLE "Helicopter"
    PERFORMER "XTC"
    INDEX 01 00:00:00
  TRACK 02 AUDIO
    TITLE "When You're Near Me I Have Difficulty"
    PERFORMER "XTC"
    INDEX 01 03:33:15
  TRACK 03 AUDIO
    TITLE "Real By Reel"
    PERFORMER "XTC"
    INDEX 01 07:02:31